HIERARCHY
ROOT Hips
{
	OFFSET 0.00000 0.00000 0.00000
	CHANNELS 6 Xposition Yposition Zposition Zrotation Yrotation Xrotation 
	JOINT LHipJoint
	{
		OFFSET 0 0 0
		CHANNELS 3 Zrotation Yrotation Xrotation
		JOINT LeftHip
		{
			OFFSET 1.46561 -1.72757 0.83774
			CHANNELS 3 Zrotation Yrotation Xrotation
			JOINT LeftKnee
			{
				OFFSET 2.48915 -6.83890 0.00000
				CHANNELS 3 Zrotation Yrotation Xrotation
				JOINT LeftAnkle
				{
					OFFSET 2.60555 -7.15868 0.00000
					CHANNELS 3 Zrotation Yrotation Xrotation
					JOINT LeftToe
					{
						OFFSET 0.19248 -0.52884 2.26738
						CHANNELS 3 Zrotation Yrotation Xrotation
						End Site
						{
							OFFSET 0.00000 -0.00000 1.17015
						}
					}
				}
			}
		}
	}
	JOINT RHipJoint
	{
		OFFSET 0 0 0
		CHANNELS 3 Zrotation Yrotation Xrotation
		JOINT RightHip
		{
			OFFSET -1.46918 -1.72757 0.83774
			CHANNELS 3 Zrotation Yrotation Xrotation
			JOINT RightKnee
			{
				OFFSET -2.49034 -6.84216 0.00000
				CHANNELS 3 Zrotation Yrotation Xrotation
				JOINT RightAnkle
				{
					OFFSET -2.65971 -7.30750 0.00000
					CHANNELS 3 Zrotation Yrotation Xrotation
					JOINT RightToe
					{
						OFFSET -0.19227 -0.52827 2.30785
						CHANNELS 3 Zrotation Yrotation Xrotation
						End Site
						{
							OFFSET -0.00000 -0.00000 1.18972
						}
					}
				}
			}
		}
	}
	JOINT lowerback
	{
		OFFSET 0 0 0
		CHANNELS 3 Zrotation Yrotation Xrotation
		JOINT Chest
		{
			OFFSET 0.02432 2.19909 -0.28000
			CHANNELS 3 Zrotation Yrotation Xrotation
			JOINT Chest2
			{
				OFFSET 0.03714 2.21816 -0.15261
				CHANNELS 3 Zrotation Yrotation Xrotation
				JOINT lowerneck
				{
					OFFSET 0 0 0
					CHANNELS 3 Zrotation Yrotation Xrotation
					JOINT Neck
					{
						OFFSET -0.01896 1.56165 0.21681
						CHANNELS 3 Zrotation Yrotation Xrotation
						JOINT Head
						{
							OFFSET 0.02744 1.56009 0.06764
							CHANNELS 3 Zrotation Yrotation Xrotation
							End Site
							{
								OFFSET 0.01212 1.60574 0.00298
							}
						}
					}
				}
				JOINT LeftCollar
				{
					OFFSET 0 0 0
					CHANNELS 3 Zrotation Yrotation Xrotation
					JOINT LeftShoulder
					{
						OFFSET 3.05595 1.48048 -0.60794
CHANNELS 3 Zrotation Xrotation Yrotation
						JOINT LeftElbow
						{
OFFSET 0 -5.206070 -0.000000
CHANNELS 3 Zrotation Xrotation Yrotation
							JOINT LeftWrist
							{
OFFSET 0 -3.399610 0.000000
CHANNELS 3 Zrotation Xrotation Yrotation
								JOINT lhand
								{
									OFFSET 0 0 0
CHANNELS 3 Zrotation Xrotation Yrotation
									JOINT LFingers
									{
OFFSET 0 -0.519690 0.000000
CHANNELS 3 Zrotation Xrotation Yrotation
										End Site
										{
OFFSET 0 -0.418990 0.000000
										}
									}
								}
								JOINT LThumb
								{
OFFSET 0 0.000000 0.000000
CHANNELS 3 Zrotation Xrotation Yrotation
									End Site
									{
OFFSET 0 -0.425390 0.425390
									}
								}
							}
						}
					}
				}
				JOINT RightCollar
				{
					OFFSET 0 0 0
					CHANNELS 3 Zrotation Yrotation Xrotation
					JOINT RightShoulder
					{
						OFFSET -2.99052 1.57608 -0.69102
CHANNELS 3 Zrotation Xrotation Yrotation
						JOINT RightElbow
						{
OFFSET 0 -5.322140 0.000000
CHANNELS 3 Zrotation Xrotation Yrotation
							JOINT RightWrist
							{
OFFSET 0 -3.512080 0.000000
CHANNELS 3 Zrotation Xrotation Yrotation
								JOINT rhand
								{
									OFFSET 0 0 0
CHANNELS 3 Zrotation Xrotation Yrotation
									JOINT RFingers
									{
OFFSET 0 -0.586680 0.000000
CHANNELS 3 Zrotation Xrotation Yrotation
										End Site
										{
OFFSET 0 -0.473000 0.000000
										}
									}
								}
								JOINT RThumb
								{
OFFSET 0 0.000000 0.000000
CHANNELS 3 Zrotation Xrotation Yrotation
									End Site
									{
OFFSET 0 -0.480220 0.480220
									}
								}
							}
						}
					}
				}
			}
		}
	}
}
MOTION
Frames: 10
Frame Time: 0.008333333333333333
0.772251 17.131739 6.058380 -1.947888 -0.201132 0.418898 0.000000 0.000000 0.000000 -16.865271 3.925807 -19.409827 4.368664 12.635265 38.018356 0.885093 -1.614078 -17.306723 0.209726 -2.948071 -8.134269 0.000000 0.000000 0.000000 18.747674 2.445966 -16.172832 -4.244423 -12.478458 37.446727 -1.110116 5.124641 -18.869174 -0.193097 -2.829713 7.805102 0.314074 -0.263492 -3.129901 1.853231 -0.391632 -0.257899 1.707483 -0.198954 1.500908 -1.226322 -0.539553 -9.279087 1.559839 -1.060722 34.035410 0.679363 -0.429385 12.888664 0.000000 0.000000 0.000000 7.851487 -9.192848 -44.895743 19.128614 -29.578018 5.094245 28.483807 -26.685061 10.075669 0.000000 0.000000 0.000000 -7.125000 0.000000 0.000000 1.037579 18.551937 0.653647 0.000000 0.000000 0.000000 -5.887903 -13.941547 25.520884 -23.171171 -34.275337 -7.234450 -29.822772 44.845205 24.591076 0.000000 0.000000 0.000000 7.125000 0.000000 0.000000 -0.411007 57.791342 0.128722
0.768681 17.187480 6.089232 -1.919451 -0.229126 0.776213 0.000000 0.000000 0.000000 -16.946102 4.012798 -19.098976 4.120762 12.318772 36.870120 0.839913 -1.724252 -16.818941 0.188779 -2.797899 -7.716553 0.000000 0.000000 0.000000 18.747448 2.641768 -15.795518 -3.997627 -12.156544 36.289031 -1.053353 4.967624 -18.377042 -0.228163 -3.073083 8.482444 0.208369 -0.284537 -3.111841 1.816457 -0.416015 -0.208996 1.727971 -0.212052 1.542063 -1.190565 -0.491417 -9.397241 1.527633 -0.982650 33.801753 0.669248 -0.394518 12.812284 0.000000 0.000000 0.000000 7.899906 -8.665110 -44.873791 18.757137 -29.115472 4.912230 28.411529 -26.474377 9.976944 0.000000 0.000000 0.000000 -7.125000 0.000000 0.000000 0.993875 18.670637 0.623489 0.000000 0.000000 0.000000 -5.827995 -13.508976 25.295383 -22.792657 -33.860981 -7.022546 -29.776564 45.042616 24.502184 0.000000 0.000000 0.000000 7.125000 0.000000 0.000000 -0.383637 57.683405 0.119127
0.765437 17.235970 6.119095 -1.920844 -0.283130 1.129084 0.000000 0.000000 0.000000 -16.999539 4.118115 -18.815366 3.891211 12.013336 35.780392 0.802809 -1.785782 -16.417614 0.169536 -2.651886 -7.311128 0.000000 0.000000 0.000000 18.772994 2.883449 -15.433563 -3.766107 -11.841516 35.174805 -1.004453 4.804478 -17.944202 -0.273580 -3.362497 9.289934 0.137251 -0.300364 -3.083946 1.789833 -0.434737 -0.156086 1.739773 -0.222142 1.581553 -1.156746 -0.435951 -9.533937 1.502877 -0.896411 33.592363 0.663620 -0.355277 12.750671 0.000000 0.000000 0.000000 7.930789 -8.165576 -44.821959 18.349088 -28.601380 4.715479 28.339181 -26.180826 9.845015 0.000000 0.000000 0.000000 -7.125000 0.000000 0.000000 0.952423 18.826732 0.594202 0.000000 0.000000 0.000000 -5.773599 -13.088185 25.091250 -22.370650 -33.392884 -6.788974 -29.775475 45.270736 24.404461 0.000000 0.000000 0.000000 7.125000 0.000000 0.000000 -0.409966 57.576456 0.126196
0.762743 17.277402 6.147746 -1.952426 -0.360510 1.480436 0.000000 0.000000 0.000000 -17.029736 4.238768 -18.570494 3.681600 11.723309 34.761213 0.773274 -1.790656 -16.102658 0.151899 -2.510849 -6.919844 0.000000 0.000000 0.000000 18.824922 3.157845 -15.093478 -3.550018 -11.535114 34.108033 -0.963319 4.637094 -17.575031 -0.324461 -3.659179 10.119982 0.102905 -0.308904 -3.047521 1.772571 -0.445125 -0.101234 1.740990 -0.227889 1.617855 -1.132952 -0.380981 -9.679690 1.489812 -0.812825 33.394793 0.664073 -0.316909 12.696470 0.000000 0.000000 0.000000 7.943964 -7.694300 -44.745145 17.907753 -28.038101 4.506141 28.263255 -25.781910 9.672865 0.000000 0.000000 0.000000 -7.125000 0.000000 0.000000 0.910989 19.028196 0.564349 0.000000 0.000000 0.000000 -5.730598 -12.669553 24.912278 -21.918425 -32.883977 -6.541851 -29.805945 45.519852 24.310415 0.000000 0.000000 0.000000 7.125000 0.000000 0.000000 -0.470728 57.480857 0.143854
0.760289 17.311597 6.175139 -2.003210 -0.452729 1.830516 0.000000 0.000000 0.000000 -17.049584 4.371247 -18.373482 3.493246 11.452758 33.823545 0.750744 -1.739077 -15.871333 0.136345 -2.379047 -6.554492 0.000000 0.000000 0.000000 18.894226 3.450418 -14.781798 -3.351180 -11.241781 33.101003 -0.930252 4.463248 -17.275944 -0.374185 -3.927104 10.871713 0.092091 -0.311462 -3.000938 1.762063 -0.448365 -0.046762 1.736206 -0.229843 1.647765 -1.119282 -0.328723 -9.835833 1.486960 -0.734679 33.209045 0.669645 -0.280843 12.649981 0.000000 0.000000 0.000000 7.934646 -7.244056 -44.636060 17.442070 -27.435956 4.289475 28.180071 -25.265598 9.452064 0.000000 0.000000 0.000000 -7.125000 0.000000 0.000000 0.867504 19.284908 0.532453 0.000000 0.000000 0.000000 -5.699853 -12.253975 24.741281 -21.435863 -32.332646 -6.281853 -29.825351 45.792433 24.229795 0.000000 0.000000 0.000000 7.125000 0.000000 0.000000 -0.514915 57.397218 0.156304
0.758158 17.338660 6.201054 -2.068839 -0.544409 2.179860 0.000000 0.000000 0.000000 -17.062944 4.507427 -18.230133 3.326894 11.205498 32.977058 0.735097 -1.646060 -15.722022 0.121856 -2.249465 -6.195627 0.000000 0.000000 0.000000 18.978516 3.736084 -14.509748 -3.171648 -10.966811 32.169204 -0.905181 4.285989 -17.050421 -0.416311 -4.140517 11.472375 0.100457 -0.311750 -2.941155 1.756514 -0.449098 0.004711 1.725938 -0.230398 1.666899 -1.112722 -0.281769 -10.006763 1.489844 -0.664604 33.034891 0.677722 -0.248367 12.611928 0.000000 0.000000 0.000000 7.899892 -6.812073 -44.487172 16.955452 -26.798011 4.067757 28.076937 -24.629622 9.187616 0.000000 0.000000 0.000000 -7.125000 0.000000 0.000000 0.812190 19.592309 0.492918 0.000000 0.000000 0.000000 -5.677873 -11.843943 24.557951 -20.922631 -31.736876 -6.009718 -29.795642 46.103299 24.167089 0.000000 0.000000 0.000000 7.125000 0.000000 0.000000 -0.498671 57.321912 0.150520
0.755969 17.358758 6.225198 -2.138664 -0.627146 2.531263 0.000000 0.000000 0.000000 -17.078079 4.638046 -18.146450 3.182146 10.983614 32.225409 0.725767 -1.527999 -15.647854 0.106896 -2.106921 -5.801232 0.000000 0.000000 0.000000 19.069528 3.999909 -14.289900 -3.013063 -10.715375 31.326663 -0.888192 4.103887 -16.902358 -0.445288 -4.280953 11.868563 0.112966 -0.312034 -2.867975 1.753921 -0.449769 0.049826 1.716436 -0.230834 1.672062 -1.109104 -0.242297 -10.188654 1.493237 -0.605187 32.869386 0.685202 -0.220840 12.580210 0.000000 0.000000 0.000000 7.833807 -6.393387 -44.279077 16.449881 -26.125828 3.842493 27.963158 -23.881791 8.916466 0.000000 0.000000 0.000000 -7.125000 0.000000 0.000000 0.748862 19.907797 0.449220 0.000000 0.000000 0.000000 -5.659449 -11.442798 24.341567 -20.377983 -31.093878 -5.725885 -29.700712 46.480200 24.134690 0.000000 0.000000 0.000000 7.125000 0.000000 0.000000 -0.400687 57.264634 0.120419
0.753477 17.372399 6.247623 -2.208364 -0.694634 2.886293 0.000000 0.000000 0.000000 -17.096441 4.751622 -18.117674 3.056835 10.785989 31.562065 0.722253 -1.391365 -15.642994 0.091634 -1.951012 -5.370366 0.000000 0.000000 0.000000 19.164596 4.224711 -14.132945 -2.876044 -10.491073 30.582553 -0.879246 3.924535 -16.833202 -0.460391 -4.352461 12.070406 0.124929 -0.313687 -2.784451 1.751610 -0.452061 0.088047 1.707523 -0.232014 1.664436 -1.108535 -0.211694 -10.377769 1.500374 -0.559275 32.708485 0.692901 -0.199162 12.552405 0.000000 0.000000 0.000000 7.736902 -5.992830 -43.996636 15.922684 -25.414764 3.613296 27.825780 -23.017272 8.635239 0.000000 0.000000 0.000000 -7.125000 0.000000 0.000000 0.668414 20.236157 0.396122 0.000000 0.000000 0.000000 -5.634850 -11.049723 24.068623 -19.804299 -30.404675 -5.432526 -29.547878 46.947533 24.122964 0.000000 0.000000 0.000000 7.125000 0.000000 0.000000 -0.232181 57.216750 0.069536
0.750784 17.380704 6.268659 -2.268033 -0.744241 3.247447 0.000000 0.000000 0.000000 -17.126001 4.834004 -18.131971 2.947018 10.608475 30.970715 0.723716 -1.240135 -15.698615 0.076909 -1.788022 -4.920329 0.000000 0.000000 0.000000 19.251927 4.398347 -14.047347 -2.760053 -10.295754 29.940303 -0.877553 3.757848 -16.836026 -0.462887 -4.364265 12.103731 0.126208 -0.318461 -2.696732 1.746049 -0.457904 0.120486 1.701222 -0.234952 1.648610 -1.109673 -0.190243 -10.579880 1.512478 -0.528073 32.555224 0.700947 -0.183492 12.530960 0.000000 0.000000 0.000000 7.607759 -5.620517 -43.614264 15.369710 -24.657778 3.379184 27.642440 -22.008156 8.323108 0.000000 0.000000 0.000000 -7.125000 0.000000 0.000000 0.555677 20.602302 0.324807 0.000000 0.000000 0.000000 -5.597488 -10.665520 23.730977 -19.208505 -29.675847 -5.134134 -29.356518 47.511633 24.128110 0.000000 0.000000 0.000000 7.125000 0.000000 0.000000 -0.015984 57.178516 0.004838
0.747888 17.385112 6.288430 -2.306035 -0.775981 3.612888 0.000000 0.000000 0.000000 -17.176364 4.868084 -18.167361 2.847992 10.444577 30.428836 0.728925 -1.065589 -15.803654 0.064551 -1.638296 -4.507078 0.000000 0.000000 0.000000 19.316832 4.517615 -14.035527 -2.664289 -10.130476 29.400341 -0.881711 3.610123 -16.895940 -0.455592 -4.330085 12.007093 0.104361 -0.326808 -2.606460 1.734323 -0.467622 0.149624 1.701385 -0.239982 1.628185 -1.112312 -0.176951 -10.800010 1.530302 -0.510139 32.409081 0.709723 -0.173135 12.516694 0.000000 0.000000 0.000000 7.443041 -5.283859 -43.101697 14.789099 -23.850808 3.140543 27.408460 -20.841501 7.985639 0.000000 0.000000 0.000000 -7.125000 0.000000 0.000000 0.406431 20.999892 0.233976 0.000000 0.000000 0.000000 -5.544251 -10.291387 23.314898 -18.595305 -28.911920 -4.833969 -29.163825 48.170370 24.136138 0.000000 0.000000 0.000000 7.125000 0.000000 0.000000 0.202016 57.143280 -0.060058
